Moderustic-Regular.ufo
<glyph name="quotedbl" format="2">
  <advance width="409"/>
  <unicode hex="0022"/>
  <outline>
    <contour>
      <point x="75" y="572" type="line"/>
      <point x="133" y="572" type="line"/>
      <point x="148" y="803" type="line"/>
      <point x="60" y="803" type="line"/>
    </contour>
    <contour>
      <point x="276" y="572" type="line"/>
      <point x="334" y="572" type="line"/>
      <point x="349" y="803" type="line"/>
      <point x="261" y="803" type="line"/>
    </contour>
  </outline>
</glyph>
<glyph name="two" format="2">
  <advance width="632"/>
  <unicode hex="0032"/>
  <outline>
    <contour>
      <point x="84" y="70" type="line"/>
      <point x="402" y="173"/>
      <point x="545" y="300"/>
      <point x="545" y="487" type="curve" smooth="yes"/>
      <point x="545" y="636"/>
      <point x="455" y="720"/>
      <point x="311" y="720" type="curve" smooth="yes"/>
      <point x="218" y="720"/>
      <point x="142" y="685"/>
      <point x="94" y="637" type="curve"/>
      <point x="152" y="579" type="line"/>
      <point x="194" y="616"/>
      <point x="247" y="640"/>
      <point x="307" y="640" type="curve" smooth="yes"/>
      <point x="381" y="640"/>
      <point x="455" y="603"/>
      <point x="455" y="490" type="curve" smooth="yes"/>
      <point x="455" y="330"/>
      <point x="308" y="220"/>
      <point x="84" y="150" type="curve"/>
    </contour>
    <contour>
      <point x="84" y="0" type="line"/>
      <point x="545" y="0" type="line"/>
      <point x="545" y="80" type="line"/>
      <point x="84" y="80" type="line"/>
    </contour>
  </outline>
</glyph>
<glyph name="A" format="2">
  <advance width="655"/>
  <unicode hex="0041"/>
  <anchor x="328" y="719" name="top"/>
  <anchor x="328" y="-20" name="bottom"/>
  <anchor x="620" y="-3" name="ogonek"/>
  <anchor x="106" y="500" name="topgr"/>
  <outline>
    <contour>
      <point x="143" y="141" type="line" name="dv01"/>
      <point x="509" y="141" type="line"/>
      <point x="475" y="216" type="line" name="dv03"/>
      <point x="177" y="216" type="line" name="dv02"/>
    </contour>
    <contour>
      <point x="32" y="0" type="line"/>
      <point x="128" y="0" type="line"/>
      <point x="342" y="700" type="line"/>
      <point x="259" y="700" type="line"/>
    </contour>
    <contour>
      <point x="527" y="0" type="line"/>
      <point x="623" y="0" type="line"/>
      <point x="396" y="700" type="line"/>
      <point x="313" y="700" type="line"/>
    </contour>
  </outline>
</glyph>
<glyph name="Q" format="2">
  <advance width="795"/>
  <unicode hex="0051"/>
  <anchor x="398" y="719" name="top"/>
  <anchor x="398" y="-20" name="bottom"/>
  <anchor x="524" y="-1" name="ogonek"/>
  <outline>
    <contour>
      <point x="399.969" y="60" type="curve" smooth="yes" name="dv02"/>
      <point x="243.916" y="60"/>
      <point x="157" y="158.541"/>
      <point x="157" y="349.512" type="curve" smooth="yes"/>
      <point x="157" y="531.827"/>
      <point x="243.916" y="640"/>
      <point x="394.043" y="640" type="curve" smooth="yes" name="dv03"/>
      <point x="556.023" y="640"/>
      <point x="638" y="543.671"/>
      <point x="638" y="350.003" type="curve" smooth="yes" name="dv05"/>
      <point x="638" y="170.384"/>
      <point x="549.109" y="60"/>
    </contour>
    <contour>
      <point x="397" y="-20" type="curve" smooth="yes" name="dv01"/>
      <point x="593" y="-20"/>
      <point x="732" y="107"/>
      <point x="732" y="350" type="curve" smooth="yes" name="dv06"/>
      <point x="732" y="575"/>
      <point x="606" y="720"/>
      <point x="398" y="720" type="curve" smooth="yes" name="dv04"/>
      <point x="198" y="720"/>
      <point x="63" y="586"/>
      <point x="63" y="350" type="curve" smooth="yes"/>
      <point x="63" y="109"/>
      <point x="202" y="-20"/>
    </contour>
    <contour>
      <point x="370" y="-3" type="line" name="ab02"/>
      <point x="370" y="-166"/>
      <point x="422" y="-194"/>
      <point x="644" y="-194" type="curve"/>
      <point x="644" y="-121" type="line"/>
      <point x="478" y="-121"/>
      <point x="453" y="-111"/>
      <point x="453" y="-3" type="curve" name="ab01"/>
    </contour>
  </outline>
</glyph>
<glyph name="T" format="2">
  <advance width="648"/>
  <unicode hex="0054"/>
  <anchor x="324" y="719" name="top"/>
  <anchor x="324" y="-20" name="bottom"/>
  <outline>
    <contour>
      <point x="279" y="0" type="line" name="ab01"/>
      <point x="369" y="0" type="line"/>
      <point x="369" y="620" type="line" name="sv02"/>
      <point x="607" y="620" type="line" name="sv03"/>
      <point x="607" y="700" type="line"/>
      <point x="41" y="700" type="line" name="at01"/>
      <point x="41" y="620" type="line" name="sv01"/>
      <point x="279" y="620" type="line"/>
    </contour>
  </outline>
</glyph>
<glyph name="W" format="2">
  <advance width="960"/>
  <unicode hex="0057"/>
  <anchor x="480" y="719" name="top"/>
  <anchor x="480" y="-20" name="bottom"/>
  <outline>
    <contour>
      <point x="228" y="0" type="line"/>
      <point x="304" y="0" type="line"/>
      <point x="122" y="700" type="line"/>
      <point x="27" y="700" type="line"/>
    </contour>
    <contour>
      <point x="272" y="0" type="line"/>
      <point x="341" y="0" type="line"/>
      <point x="501" y="700" type="line"/>
      <point x="442" y="700" type="line"/>
    </contour>
    <contour>
      <point x="620" y="0" type="line"/>
      <point x="689" y="0" type="line"/>
      <point x="519" y="700" type="line"/>
      <point x="460" y="700" type="line"/>
    </contour>
    <contour>
      <point x="657" y="0" type="line"/>
      <point x="733" y="0" type="line"/>
      <point x="934" y="700" type="line"/>
      <point x="839" y="700" type="line"/>
    </contour>
  </outline>
</glyph>
<glyph name="X" format="2">
  <advance width="648"/>
  <unicode hex="0058"/>
  <anchor x="324" y="719" name="top"/>
  <anchor x="324" y="-20" name="bottom"/>
  <outline>
    <contour>
      <point x="35" y="0" type="line"/>
      <point x="139" y="0" type="line"/>
      <point x="324" y="321" type="line"/>
      <point x="509" y="0" type="line"/>
      <point x="614" y="0" type="line"/>
      <point x="401" y="354" type="line"/>
      <point x="609" y="700" type="line"/>
      <point x="504" y="700" type="line"/>
      <point x="325" y="390" type="line"/>
      <point x="146" y="700" type="line"/>
      <point x="40" y="700" type="line"/>
      <point x="248" y="354" type="line"/>
    </contour>
  </outline>
</glyph>
<glyph name="e" format="2">
  <advance width="598"/>
  <unicode hex="0065"/>
  <anchor x="299" y="520" name="top"/>
  <anchor x="299" y="-20" name="bottom"/>
  <anchor x="418" y="-3" name="ogonek"/>
  <outline>
    <contour>
      <point x="152" y="296" type="line" name="sv02"/>
      <point x="162" y="398.329"/>
      <point x="221.207" y="450"/>
      <point x="303.495" y="450" type="curve" smooth="yes" name="sv01"/>
      <point x="385.782" y="450"/>
      <point x="437.965" y="398.329"/>
      <point x="448" y="296" type="curve" name="dv04"/>
    </contour>
    <contour>
      <point x="464" y="123" type="line"/>
      <point x="427.886" y="76.3611"/>
      <point x="373.714" y="50"/>
      <point x="309.511" y="50" type="curve" smooth="yes" name="dv02"/>
      <point x="199.162" y="50"/>
      <point x="148" y="128.419"/>
      <point x="148" y="237" type="curve" name="sv04"/>
      <point x="541" y="237" type="line" name="dv03"/>
      <point x="541" y="421"/>
      <point x="456" y="520"/>
      <point x="304" y="520" type="curve" smooth="yes" name="at01"/>
      <point x="157" y="520"/>
      <point x="58" y="427"/>
      <point x="58" y="251" type="curve" smooth="yes" name="sv03"/>
      <point x="58" y="72"/>
      <point x="160" y="-20"/>
      <point x="309" y="-20" type="curve" smooth="yes" name="dv01"/>
      <point x="404" y="-20"/>
      <point x="476" y="17"/>
      <point x="517" y="70" type="curve"/>
    </contour>
  </outline>
</glyph>
<glyph name="l" format="2">
  <advance width="350"/>
  <unicode hex="006C"/>
  <anchor x="148" y="750" name="top"/>
  <anchor x="200" y="-20" name="bottom"/>
  <anchor x="240" y="750" name="topright"/>
  <outline>
    <contour>
      <point x="299" y="68" type="line"/>
      <point x="279" y="59"/>
      <point x="254" y="53"/>
      <point x="233" y="53" type="curve" smooth="yes" name="dv02"/>
      <point x="199" y="53"/>
      <point x="189" y="68"/>
      <point x="189" y="141" type="curve" smooth="yes"/>
      <point x="189" y="750" type="line" name="ab01"/>
      <point x="99" y="750" type="line"/>
      <point x="99" y="132" type="line" smooth="yes"/>
      <point x="99" y="30"/>
      <point x="135" y="-20"/>
      <point x="224" y="-20" type="curve" smooth="yes" name="dv01"/>
      <point x="249" y="-20"/>
      <point x="272" y="-16"/>
      <point x="315" y="2" type="curve"/>
    </contour>
  </outline>
</glyph>
<glyph name="u" format="2">
  <advance width="600"/>
  <unicode hex="0075"/>
  <anchor x="300" y="520" name="top"/>
  <anchor x="300" y="-20" name="bottom"/>
  <anchor x="399" y="-3" name="ogonek"/>
  <outline>
    <contour>
      <point x="86" y="500" type="line" name="av01"/>
      <point x="86" y="185" type="line" smooth="yes"/>
      <point x="86" y="62"/>
      <point x="165" y="-20"/>
      <point x="300" y="-20" type="curve" smooth="yes" name="dv01"/>
      <point x="436" y="-20"/>
      <point x="513" y="65"/>
      <point x="513" y="185" type="curve" smooth="yes"/>
      <point x="513" y="500" type="line" name="av02"/>
      <point x="423" y="500" type="line"/>
      <point x="423" y="184.298" type="line" smooth="yes"/>
      <point x="423" y="91.0913"/>
      <point x="378" y="50"/>
      <point x="301" y="50" type="curve" smooth="yes" name="dv02"/>
      <point x="225" y="50"/>
      <point x="176" y="88.0846"/>
      <point x="176" y="184.298" type="curve" smooth="yes"/>
      <point x="176" y="500" type="line"/>
    </contour>
  </outline>
</glyph>
<glyph name="z" format="2">
  <advance width="483"/>
  <unicode hex="007A"/>
  <anchor x="241" y="520" name="top"/>
  <anchor x="241" y="-20" name="bottom"/>
  <outline>
    <contour>
      <point x="38" y="0" type="line" name="ab01"/>
      <point x="445" y="0" type="line"/>
      <point x="445" y="70" type="line" name="sv01"/>
      <point x="156" y="70" type="line"/>
      <point x="445" y="440" type="line"/>
      <point x="445" y="500" type="line"/>
      <point x="58" y="500" type="line" name="dv02"/>
      <point x="58" y="430" type="line" name="dv01"/>
      <point x="327" y="430" type="line"/>
      <point x="38" y="60" type="line"/>
    </contour>
  </outline>
</glyph>
<glyph name="eogonek" format="2">
  <advance width="598"/>
  <unicode hex="0119"/>
  <anchor x="299" y="520" name="top"/>
  <anchor x="299" y="-20" name="bottom"/>
  <outline>
    <contour>
      <point x="152" y="296" type="line" name="sv02"/>
      <point x="162" y="398.329"/>
      <point x="221.207" y="450"/>
      <point x="303.495" y="450" type="curve" smooth="yes" name="sv01"/>
      <point x="385.782" y="450"/>
      <point x="437.965" y="398.329"/>
      <point x="448" y="296" type="curve" name="dv04"/>
    </contour>
    <contour>
      <point x="464" y="123" type="line"/>
      <point x="427.886" y="76.3611"/>
      <point x="373.714" y="50"/>
      <point x="309.511" y="50" type="curve" smooth="yes" name="dv02"/>
      <point x="199.162" y="50"/>
      <point x="148" y="128.419"/>
      <point x="148" y="237" type="curve" name="sv04"/>
      <point x="541" y="237" type="line" name="dv03"/>
      <point x="541" y="421"/>
      <point x="456" y="520"/>
      <point x="304" y="520" type="curve" smooth="yes" name="at01"/>
      <point x="157" y="520"/>
      <point x="58" y="427"/>
      <point x="58" y="251" type="curve" smooth="yes" name="sv03"/>
      <point x="58" y="72"/>
      <point x="160" y="-20"/>
      <point x="309" y="-20" type="curve" smooth="yes" name="dv01"/>
      <point x="404" y="-20"/>
      <point x="476" y="17"/>
      <point x="517" y="70" type="curve"/>
    </contour>
    <contour>
      <point x="422" y="-183" type="line"/>
      <point x="378" y="-171"/>
      <point x="355" y="-143"/>
      <point x="355" y="-103" type="curve" smooth="yes"/>
      <point x="355" y="-62"/>
      <point x="380" y="-22"/>
      <point x="421" y="0" type="curve"/>
      <point x="400" y="3" type="line"/>
      <point x="327" y="-12"/>
      <point x="280" y="-59"/>
      <point x="280" y="-110" type="curve" smooth="yes"/>
      <point x="280" y="-157"/>
      <point x="320" y="-196"/>
      <point x="380" y="-206" type="curve"/>
    </contour>
  </outline>
</glyph>
<glyph name="scedilla" format="2">
  <advance width="507"/>
  <unicode hex="015F"/>
  <anchor x="253" y="520" name="top"/>
  <anchor x="233" y="-218" name="bottom"/>
  <outline>
    <contour>
      <point x="56" y="70" type="line"/>
      <point x="95" y="20"/>
      <point x="162" y="-20"/>
      <point x="248" y="-20" type="curve" smooth="yes"/>
      <point x="357" y="-20"/>
      <point x="439" y="44.1365"/>
      <point x="439" y="130.32" type="curve" smooth="yes"/>
      <point x="439" y="202.473"/>
      <point x="381.987" y="246.519"/>
      <point x="284" y="273.625" type="curve" smooth="yes"/>
      <point x="189.987" y="299.632"/>
      <point x="156" y="334.755"/>
      <point x="156" y="376.844" type="curve" smooth="yes"/>
      <point x="156" y="421.94"/>
      <point x="194" y="450"/>
      <point x="244" y="450" type="curve" smooth="yes"/>
      <point x="293" y="450"/>
      <point x="343" y="421.611"/>
      <point x="377" y="377" type="curve"/>
      <point x="430" y="430" type="line"/>
      <point x="391" y="480"/>
      <point x="324" y="520"/>
      <point x="240" y="520" type="curve" smooth="yes"/>
      <point x="134" y="520"/>
      <point x="66" y="455.864"/>
      <point x="66" y="373.689" type="curve" smooth="yes"/>
      <point x="66" y="298.529"/>
      <point x="121.967" y="241.281"/>
      <point x="234" y="212.345" type="curve" smooth="yes"/>
      <point x="315.968" y="191.175"/>
      <point x="349" y="160.235"/>
      <point x="349" y="120.149" type="curve" smooth="yes"/>
      <point x="349" y="77.0576"/>
      <point x="311" y="50"/>
      <point x="253" y="50" type="curve" smooth="yes"/>
      <point x="193" y="50"/>
      <point x="143" y="78.3889"/>
      <point x="109" y="123" type="curve"/>
    </contour>
    <contour>
      <point x="137" y="-205" type="line"/>
      <point x="158" y="-211"/>
      <point x="182" y="-218"/>
      <point x="221" y="-218" type="curve" smooth="yes"/>
      <point x="301" y="-218"/>
      <point x="347" y="-189"/>
      <point x="347" y="-137" type="curve" smooth="yes"/>
      <point x="347" y="-90"/>
      <point x="310" y="-64"/>
      <point x="251" y="-64" type="curve"/>
      <point x="295.74" y="14.8951" type="line"/>
      <point x="238.74" y="14.8951" type="line"/>
      <point x="184" y="-86" type="line"/>
      <point x="199" y="-84"/>
      <point x="210" y="-82"/>
      <point x="223" y="-82" type="curve" smooth="yes"/>
      <point x="258" y="-82"/>
      <point x="279" y="-97"/>
      <point x="279" y="-132" type="curve" smooth="yes"/>
      <point x="279" y="-166"/>
      <point x="260" y="-182"/>
      <point x="218" y="-182" type="curve" smooth="yes"/>
      <point x="195" y="-182"/>
      <point x="173" y="-177"/>
      <point x="156" y="-171" type="curve"/>
    </contour>
  </outline>
</glyph>
<glyph name="tbar" format="2">
  <advance width="365"/>
  <unicode hex="0167"/>
  <outline>
    <contour>
      <point x="20" y="430" type="line" name="dv03"/>
      <point x="325" y="430" type="line"/>
      <point x="325" y="500" type="line"/>
      <point x="20" y="500" type="line" name="dv04"/>
    </contour>
    <contour>
      <point x="314" y="69" type="line"/>
      <point x="282" y="54.2632"/>
      <point x="267" y="49"/>
      <point x="251" y="49" type="curve" smooth="yes" name="dv02"/>
      <point x="220" y="49"/>
      <point x="210" y="69.0345"/>
      <point x="210" y="131.141" type="curve" smooth="yes"/>
      <point x="210" y="620" type="line" name="av01"/>
      <point x="120" y="620" type="line"/>
      <point x="120" y="132" type="line" smooth="yes"/>
      <point x="120" y="29"/>
      <point x="155" y="-21"/>
      <point x="227" y="-21" type="curve" smooth="yes" name="dv01"/>
      <point x="257" y="-21"/>
      <point x="286" y="-12"/>
      <point x="333" y="7" type="curve"/>
    </contour>
    <contour>
      <point x="18.065" y="225.52" type="line"/>
      <point x="314.735" y="225.52" type="line"/>
      <point x="314.735" y="284.2" type="line"/>
      <point x="18.065" y="284.2" type="line"/>
    </contour>
  </outline>
</glyph>
<glyph name="beta" format="2">
  <advance width="630"/>
  <unicode hex="03B2"/>
  <anchor x="315" y="721" name="topgr"/>
  <outline>
    <contour>
      <point x="94" y="-200" type="line"/>
      <point x="184" y="-200" type="line"/>
      <point x="184" y="500" type="line" smooth="yes"/>
      <point x="184" y="607"/>
      <point x="234" y="649"/>
      <point x="319" y="649" type="curve" smooth="yes"/>
      <point x="408" y="649"/>
      <point x="459" y="612.862"/>
      <point x="459" y="527.536" type="curve" smooth="yes"/>
      <point x="459" y="446.226"/>
      <point x="412" y="387"/>
      <point x="354" y="387" type="curve" smooth="yes"/>
      <point x="268" y="387" type="line"/>
      <point x="268" y="328" type="line"/>
      <point x="354" y="328" type="line" smooth="yes"/>
      <point x="433" y="328"/>
      <point x="490" y="283"/>
      <point x="490" y="195" type="curve" smooth="yes"/>
      <point x="490" y="102"/>
      <point x="426" y="50"/>
      <point x="339" y="50" type="curve" smooth="yes"/>
      <point x="271" y="50"/>
      <point x="184" y="82"/>
      <point x="184" y="179" type="curve"/>
      <point x="172" y="80" type="line"/>
      <point x="203" y="8"/>
      <point x="268" y="-20"/>
      <point x="344.865" y="-20" type="curve" smooth="yes"/>
      <point x="478" y="-20"/>
      <point x="580" y="62.8493"/>
      <point x="580" y="188.11" type="curve" smooth="yes"/>
      <point x="580" y="281.808"/>
      <point x="522" y="340"/>
      <point x="405" y="361" type="curve"/>
      <point x="500" y="380"/>
      <point x="549" y="436.838"/>
      <point x="549" y="530.216" type="curve" smooth="yes"/>
      <point x="549" y="646.937"/>
      <point x="472" y="719"/>
      <point x="326" y="719" type="curve" smooth="yes"/>
      <point x="180" y="719"/>
      <point x="94" y="648"/>
      <point x="94" y="516" type="curve" smooth="yes"/>
    </contour>
  </outline>
</glyph>
<glyph name="delta" format="2">
  <advance width="616"/>
  <unicode hex="03B4"/>
  <anchor x="308" y="721" name="topgr"/>
  <outline>
    <contour>
      <point x="305" y="50" type="curve" smooth="yes"/>
      <point x="206" y="50"/>
      <point x="159" y="109"/>
      <point x="159" y="224" type="curve" smooth="yes"/>
      <point x="159" y="340"/>
      <point x="207" y="397"/>
      <point x="301" y="397" type="curve" smooth="yes"/>
      <point x="412" y="397"/>
      <point x="457" y="317"/>
      <point x="457" y="218" type="curve" smooth="yes"/>
      <point x="457" y="117"/>
      <point x="410" y="50"/>
    </contour>
    <contour>
      <point x="309" y="-20" type="curve" smooth="yes"/>
      <point x="458" y="-20"/>
      <point x="547" y="75"/>
      <point x="547" y="226" type="curve" smooth="yes"/>
      <point x="547" y="376"/>
      <point x="459" y="467"/>
      <point x="309" y="467" type="curve" smooth="yes"/>
      <point x="154" y="467"/>
      <point x="69" y="369"/>
      <point x="69" y="226" type="curve" smooth="yes"/>
      <point x="69" y="82"/>
      <point x="155" y="-20"/>
    </contour>
    <contour>
      <point x="391" y="456" type="line"/>
      <point x="248" y="489.17"/>
      <point x="219" y="522.34"/>
      <point x="219" y="569.582" type="curve" smooth="yes"/>
      <point x="219" y="622.856"/>
      <point x="257" y="651"/>
      <point x="308" y="651" type="curve" smooth="yes"/>
      <point x="356" y="651"/>
      <point x="401" y="626.613"/>
      <point x="440" y="588" type="curve"/>
      <point x="493" y="641" type="line"/>
      <point x="449" y="685"/>
      <point x="387" y="721"/>
      <point x="306" y="721" type="curve" smooth="yes"/>
      <point x="197" y="721"/>
      <point x="129" y="657"/>
      <point x="129" y="578" type="curve" smooth="yes"/>
      <point x="129" y="497"/>
      <point x="199" y="447"/>
      <point x="309" y="438" type="curve"/>
    </contour>
  </outline>
</glyph>
<glyph name="phi" format="2">
  <advance width="750"/>
  <unicode hex="03C6"/>
  <anchor x="375" y="520" name="topgr"/>
  <outline>
    <contour>
      <point x="328" y="-200" type="line"/>
      <point x="418" y="-200" type="line"/>
      <point x="418" y="-20" type="line"/>
      <point x="596" y="-20"/>
      <point x="681" y="70"/>
      <point x="681" y="250" type="curve" smooth="yes"/>
      <point x="681" y="421"/>
      <point x="594" y="520"/>
      <point x="450" y="520" type="curve" smooth="yes"/>
      <point x="380" y="520"/>
      <point x="328" y="497.953"/>
      <point x="328" y="414.776" type="curve" smooth="yes"/>
      <point x="328" y="50" type="line"/>
      <point x="208" y="50"/>
      <point x="159" y="109.151"/>
      <point x="159" y="251.515" type="curve" smooth="yes"/>
      <point x="159" y="331.721"/>
      <point x="173" y="406.913"/>
      <point x="244" y="441" type="curve"/>
      <point x="185" y="500" type="line"/>
      <point x="119" y="460"/>
      <point x="69" y="382"/>
      <point x="69" y="251" type="curve" smooth="yes"/>
      <point x="69" y="115"/>
      <point x="119" y="-20"/>
      <point x="328" y="-20" type="curve"/>
    </contour>
    <contour>
      <point x="418" y="50" type="curve"/>
      <point x="418" y="410.804" type="line" smooth="yes"/>
      <point x="418" y="437.94"/>
      <point x="427.052" y="450"/>
      <point x="459.238" y="450" type="curve" smooth="yes"/>
      <point x="539.703" y="450"/>
      <point x="591" y="375.628"/>
      <point x="591" y="252.01" type="curve" smooth="yes"/>
      <point x="591" y="108.291"/>
      <point x="541.715" y="50"/>
    </contour>
  </outline>
</glyph>
<glyph name="Njecyr" format="2">
  <advance width="990"/>
  <unicode hex="040A"/>
  <outline>
    <contour>
      <point x="98" y="0" type="line" name="ab01"/>
      <point x="188" y="0" type="line"/>
      <point x="188" y="345" type="line" name="dv01"/>
      <point x="518" y="345" type="line"/>
      <point x="518" y="0" type="line" name="ab02"/>
      <point x="608" y="0" type="line"/>
      <point x="608" y="700" type="line" name="at01"/>
      <point x="518" y="700" type="line"/>
      <point x="518" y="425" type="line"/>
      <point x="188" y="425" type="line" name="dv02"/>
      <point x="188" y="700" type="line" name="at02"/>
      <point x="98" y="700" type="line"/>
    </contour>
    <contour>
      <point x="528" y="0" type="line"/>
      <point x="707" y="0" type="line" smooth="yes"/>
      <point x="875" y="0"/>
      <point x="931" y="87.1795"/>
      <point x="931" y="209.231" type="curve" smooth="yes"/>
      <point x="931" y="334.551"/>
      <point x="872" y="425"/>
      <point x="694" y="425" type="curve" smooth="yes"/>
      <point x="525" y="425" type="line"/>
      <point x="540" y="345" type="line"/>
      <point x="679" y="345" type="line" smooth="yes"/>
      <point x="797" y="345"/>
      <point x="841" y="309.283"/>
      <point x="841" y="204.435" type="curve" smooth="yes"/>
      <point x="841" y="114.565"/>
      <point x="808" y="80"/>
      <point x="680" y="80" type="curve" smooth="yes"/>
      <point x="594" y="80" type="line"/>
    </contour>
  </outline>
</glyph>
<glyph name="Zhecyr" format="2">
  <advance width="925"/>
  <unicode hex="0416"/>
  <anchor x="463" y="720" name="top"/>
  <outline>
    <contour>
      <point x="91" y="700" type="line"/>
      <point x="182" y="700" type="line"/>
      <point x="197" y="541" type="line" smooth="yes"/>
      <point x="204" y="465"/>
      <point x="215" y="415"/>
      <point x="283" y="415" type="curve" smooth="yes"/>
      <point x="418" y="415" type="line"/>
      <point x="418" y="700" type="line"/>
      <point x="508" y="700" type="line"/>
      <point x="508" y="415" type="line"/>
      <point x="640" y="415" type="line" smooth="yes"/>
      <point x="699" y="415"/>
      <point x="720" y="445"/>
      <point x="729" y="541" type="curve" smooth="yes"/>
      <point x="744" y="700" type="line"/>
      <point x="835" y="700" type="line"/>
      <point x="814" y="479" type="line"/>
      <point x="806.75" y="419.2"/>
      <point x="785.63" y="379.12"/>
      <point x="748.01" y="356.74" type="curve"/>
      <point x="878" y="0" type="line"/>
      <point x="780" y="0" type="line"/>
      <point x="657.8" y="335.06" type="line"/>
      <point x="508" y="335" type="line"/>
      <point x="508" y="0" type="line"/>
      <point x="418" y="0" type="line"/>
      <point x="418" y="335" type="line"/>
      <point x="268.2" y="335.05" type="line"/>
      <point x="146" y="0" type="line"/>
      <point x="48" y="0" type="line"/>
      <point x="177.83" y="356.29" type="line"/>
      <point x="142.43" y="377.19"/>
      <point x="119.52" y="415.38"/>
      <point x="112" y="479" type="curve"/>
    </contour>
  </outline>
</glyph>
<glyph name="Ereversedcyr" format="2">
  <advance width="694"/>
  <unicode hex="042D"/>
  <anchor x="330" y="719" name="top"/>
  <outline>
    <contour>
      <point x="220" y="320" type="line"/>
      <point x="220" y="400" type="line"/>
      <point x="555" y="400" type="line"/>
      <point x="555" y="320" type="line"/>
    </contour>
    <contour>
      <point x="111" y="160" type="line"/>
      <point x="162.523" y="93"/>
      <point x="229.899" y="60"/>
      <point x="304.211" y="60" type="curve" smooth="yes" name="dv02"/>
      <point x="446.89" y="60"/>
      <point x="543" y="182"/>
      <point x="543" y="366" type="curve" smooth="yes"/>
      <point x="543" y="542"/>
      <point x="455.807" y="640"/>
      <point x="316.101" y="640" type="curve" smooth="yes" name="dv03"/>
      <point x="236.835" y="640"/>
      <point x="172.431" y="609"/>
      <point x="111" y="541" type="curve"/>
      <point x="53" y="599" type="line"/>
      <point x="118" y="681"/>
      <point x="203" y="720"/>
      <point x="312" y="720" type="curve" smooth="yes" name="dv04"/>
      <point x="518" y="720"/>
      <point x="637" y="581"/>
      <point x="637" y="365" type="curve" smooth="yes"/>
      <point x="637" y="135"/>
      <point x="503" y="-20"/>
      <point x="305" y="-20" type="curve" smooth="yes" name="dv01"/>
      <point x="207" y="-20"/>
      <point x="127" y="18"/>
      <point x="53" y="102" type="curve"/>
    </contour>
  </outline>
</glyph>
<glyph name="emcyr" format="2">
  <advance width="689"/>
  <unicode hex="043C"/>
  <outline>
    <contour>
      <point x="90" y="0" type="line"/>
      <point x="180" y="0" type="line"/>
      <point x="180" y="333" type="line"/>
      <point x="309" y="110" type="line"/>
      <point x="380" y="110" type="line"/>
      <point x="509" y="333" type="line"/>
      <point x="509" y="0" type="line"/>
      <point x="599" y="0" type="line"/>
      <point x="599" y="500" type="line"/>
      <point x="517" y="500" type="line"/>
      <point x="344" y="200" type="line"/>
      <point x="171" y="500" type="line"/>
      <point x="90" y="500" type="line"/>
    </contour>
  </outline>
</glyph>
<glyph name="shacyr" format="2">
  <advance width="879"/>
  <unicode hex="0448"/>
  <outline>
    <contour>
      <point x="90" y="0" type="line"/>
      <point x="789" y="0" type="line"/>
      <point x="789" y="500" type="line"/>
      <point x="699" y="500" type="line"/>
      <point x="699" y="70" type="line"/>
      <point x="485" y="70" type="line"/>
      <point x="485" y="500" type="line"/>
      <point x="395" y="500" type="line"/>
      <point x="395" y="70" type="line"/>
      <point x="180" y="70" type="line"/>
      <point x="180" y="500" type="line"/>
      <point x="90" y="500" type="line"/>
    </contour>
  </outline>
</glyph>
<glyph name="dagger" format="2">
  <advance width="701"/>
  <unicode hex="2020"/>
  <outline>
    <contour>
      <point x="340" y="-104" type="line"/>
      <point x="364" y="-104" type="line"/>
      <point x="387" y="421" type="line"/>
      <point x="650" y="408" type="line"/>
      <point x="650" y="463" type="line"/>
      <point x="389" y="450" type="line"/>
      <point x="394" y="696" type="line"/>
      <point x="310" y="696" type="line"/>
      <point x="315" y="449" type="line"/>
      <point x="50" y="463" type="line"/>
      <point x="50" y="408" type="line"/>
      <point x="317" y="421" type="line"/>
    </contour>
  </outline>
</glyph>
<glyph name="hryvnia" format="2">
  <advance width="734"/>
  <unicode hex="20B4"/>
  <outline>
    <contour>
      <point x="41" y="275" type="line"/>
      <point x="156.94" y="275" type="line"/>
      <point x="138.13" y="245.74"/>
      <point x="129" y="212.11"/>
      <point x="129" y="174.29" type="curve" smooth="yes"/>
      <point x="129" y="45.09"/>
      <point x="235" y="-20"/>
      <point x="369" y="-20" type="curve" smooth="yes"/>
      <point x="476" y="-20"/>
      <point x="559" y="21"/>
      <point x="622" y="101" type="curve"/>
      <point x="564" y="159" type="line"/>
      <point x="505" y="94.34"/>
      <point x="443" y="60"/>
      <point x="364" y="60" type="curve" smooth="yes"/>
      <point x="280" y="60"/>
      <point x="219" y="99.05"/>
      <point x="219" y="176.17" type="curve" smooth="yes"/>
      <point x="219" y="218.25"/>
      <point x="237.54" y="250.65"/>
      <point x="277.54" y="275" type="curve"/>
      <point x="693" y="275" type="line"/>
      <point x="693" y="311" type="line"/>
      <point x="41" y="311" type="line"/>
    </contour>
    <contour>
      <point x="41" y="391" type="line"/>
      <point x="693" y="391" type="line"/>
      <point x="693" y="427" type="line"/>
      <point x="583.15" y="427" type="line"/>
      <point x="602.24" y="456.57"/>
      <point x="612" y="490.88"/>
      <point x="612" y="529.71" type="curve" smooth="yes"/>
      <point x="612" y="646.88"/>
      <point x="523" y="720"/>
      <point x="386" y="720" type="curve" smooth="yes"/>
      <point x="284" y="720"/>
      <point x="201" y="679"/>
      <point x="138" y="599" type="curve"/>
      <point x="196" y="541" type="line"/>
      <point x="255" y="605.65"/>
      <point x="317" y="640"/>
      <point x="389" y="640" type="curve" smooth="yes"/>
      <point x="467" y="640"/>
      <point x="522" y="600.94"/>
      <point x="522" y="526.82" type="curve" smooth="yes"/>
      <point x="522" y="486.79"/>
      <point x="505.78" y="453.44"/>
      <point x="460.5" y="427" type="curve"/>
      <point x="41" y="427" type="line"/>
    </contour>
  </outline>
</glyph>
<glyph name="C.ss10" format="2">
  <advance width="735"/>
  <anchor x="407" y="-19" name="bottom"/>
  <anchor x="387" y="719" name="top"/>
  <outline>
    <contour>
      <point x="636" y="201" type="line"/>
      <point x="577" y="105.321"/>
      <point x="501" y="60"/>
      <point x="412" y="60" type="curve" smooth="yes"/>
      <point x="256" y="60"/>
      <point x="153" y="184.429"/>
      <point x="153" y="353.01" type="curve" smooth="yes"/>
      <point x="153" y="520.588"/>
      <point x="245" y="640"/>
      <point x="401" y="640" type="curve" smooth="yes"/>
      <point x="490" y="640"/>
      <point x="570" y="593.671"/>
      <point x="627" y="499" type="curve"/>
      <point x="663" y="603" type="line"/>
      <point x="595" y="680"/>
      <point x="505" y="720"/>
      <point x="399" y="720" type="curve" smooth="yes"/>
      <point x="196" y="720"/>
      <point x="63" y="573"/>
      <point x="63" y="357" type="curve" smooth="yes"/>
      <point x="63" y="137"/>
      <point x="200" y="-20"/>
      <point x="406" y="-20" type="curve" smooth="yes"/>
      <point x="509" y="-20"/>
      <point x="602" y="19"/>
      <point x="672" y="97" type="curve"/>
    </contour>
  </outline>
</glyph>
<glyph name="Ccedilla.ss09" format="2">
  <advance width="773"/>
  <anchor x="387" y="719" name="top"/>
  <anchor x="387" y="-217" name="bottom"/>
  <outline>
    <contour>
      <point x="620" y="261" type="line"/>
      <point x="604" y="140"/>
      <point x="513" y="60"/>
      <point x="397" y="60" type="curve" smooth="yes"/>
      <point x="253" y="60"/>
      <point x="153" y="181"/>
      <point x="153" y="354" type="curve" smooth="yes"/>
      <point x="153" y="524"/>
      <point x="249" y="640"/>
      <point x="390" y="640" type="curve" smooth="yes"/>
      <point x="489" y="640"/>
      <point x="577" y="584"/>
      <point x="610" y="485" type="curve"/>
      <point x="700" y="485" type="line"/>
      <point x="654" y="637"/>
      <point x="551" y="720"/>
      <point x="400" y="720" type="curve" smooth="yes"/>
      <point x="200" y="720"/>
      <point x="63" y="572"/>
      <point x="63" y="355" type="curve" smooth="yes"/>
      <point x="63" y="135"/>
      <point x="202" y="-20"/>
      <point x="400" y="-20" type="curve" smooth="yes"/>
      <point x="560" y="-20"/>
      <point x="677" y="79"/>
      <point x="710" y="261" type="curve"/>
    </contour>
    <contour>
      <point x="291" y="-204" type="line"/>
      <point x="312" y="-210"/>
      <point x="336" y="-217"/>
      <point x="375" y="-217" type="curve" smooth="yes"/>
      <point x="455" y="-217"/>
      <point x="501" y="-188"/>
      <point x="501" y="-136" type="curve" smooth="yes"/>
      <point x="501" y="-89"/>
      <point x="464" y="-63"/>
      <point x="405" y="-63" type="curve"/>
      <point x="449.74" y="15.8951" type="line"/>
      <point x="392.74" y="15.8951" type="line"/>
      <point x="338" y="-85" type="line"/>
      <point x="353" y="-83"/>
      <point x="364" y="-81"/>
      <point x="377" y="-81" type="curve" smooth="yes"/>
      <point x="412" y="-81"/>
      <point x="433" y="-96"/>
      <point x="433" y="-131" type="curve" smooth="yes"/>
      <point x="433" y="-165"/>
      <point x="414" y="-181"/>
      <point x="372" y="-181" type="curve" smooth="yes"/>
      <point x="349" y="-181"/>
      <point x="327" y="-176"/>
      <point x="310" y="-170" type="curve"/>
    </contour>
  </outline>
</glyph>
<glyph name="G.ss13" format="2">
  <advance width="783"/>
  <anchor x="392" y="-19" name="bottom"/>
  <anchor x="392" y="719" name="top"/>
  <outline>
    <contour>
      <point x="390" y="280" type="line"/>
      <point x="630" y="280" type="line"/>
      <point x="630" y="152.42"/>
      <point x="533" y="60"/>
      <point x="396" y="60" type="curve" smooth="yes"/>
      <point x="245" y="60"/>
      <point x="153" y="171.384"/>
      <point x="153" y="348.997" type="curve" smooth="yes"/>
      <point x="153" y="531.626"/>
      <point x="249" y="640"/>
      <point x="397" y="640" type="curve" smooth="yes"/>
      <point x="503" y="640"/>
      <point x="581" y="583.636"/>
      <point x="610" y="485" type="curve"/>
      <point x="700" y="485" type="line"/>
      <point x="653" y="640"/>
      <point x="546" y="720"/>
      <point x="397" y="720" type="curve" smooth="yes"/>
      <point x="197" y="720"/>
      <point x="63" y="576"/>
      <point x="63" y="352" type="curve" smooth="yes"/>
      <point x="63" y="130"/>
      <point x="195" y="-20"/>
      <point x="397" y="-20" type="curve" smooth="yes"/>
      <point x="590" y="-20"/>
      <point x="720" y="117"/>
      <point x="720" y="321" type="curve" smooth="yes"/>
      <point x="720" y="360" type="line"/>
      <point x="390" y="360" type="line"/>
    </contour>
  </outline>
</glyph>
<glyph name="IJ.liga.ss12" format="2">
  <advance width="610"/>
  <outline>
    <contour>
      <point x="121" y="26" type="line"/>
      <point x="165" y="0"/>
      <point x="216.445" y="-20"/>
      <point x="296.699" y="-20" type="curve" smooth="yes"/>
      <point x="442.803" y="-20"/>
      <point x="521" y="47"/>
      <point x="521" y="222" type="curve" smooth="yes"/>
      <point x="521" y="700" type="line"/>
      <point x="431" y="700" type="line"/>
      <point x="431" y="217" type="line" smooth="yes"/>
      <point x="431" y="109"/>
      <point x="391.319" y="60"/>
      <point x="292.115" y="60" type="curve" smooth="yes"/>
      <point x="251.389" y="60"/>
      <point x="195" y="68"/>
      <point x="130" y="91" type="curve"/>
    </contour>
    <contour>
      <point x="118" y="200" type="line"/>
      <point x="208" y="200" type="line"/>
      <point x="208" y="700" type="line"/>
      <point x="118" y="700" type="line"/>
    </contour>
  </outline>
</glyph>
<glyph name="Q.ss06" format="2">
  <advance width="795"/>
  <anchor x="398" y="719" name="top"/>
  <anchor x="398" y="-20" name="bottom"/>
  <anchor x="524" y="-1" name="ogonek"/>
  <outline>
    <contour>
      <point x="399.969" y="60" type="curve" smooth="yes" name="dv02"/>
      <point x="243.916" y="60"/>
      <point x="157" y="158.541"/>
      <point x="157" y="349.512" type="curve" smooth="yes"/>
      <point x="157" y="531.827"/>
      <point x="243.916" y="640"/>
      <point x="394.043" y="640" type="curve" smooth="yes" name="dv03"/>
      <point x="556.023" y="640"/>
      <point x="638" y="543.671"/>
      <point x="638" y="350.003" type="curve" smooth="yes" name="dv05"/>
      <point x="638" y="170.384"/>
      <point x="549.109" y="60"/>
    </contour>
    <contour>
      <point x="397" y="-20" type="curve" smooth="yes" name="dv01"/>
      <point x="593" y="-20"/>
      <point x="732" y="107"/>
      <point x="732" y="350" type="curve" smooth="yes" name="dv06"/>
      <point x="732" y="575"/>
      <point x="606" y="720"/>
      <point x="398" y="720" type="curve" smooth="yes" name="dv04"/>
      <point x="198" y="720"/>
      <point x="63" y="586"/>
      <point x="63" y="350" type="curve" smooth="yes"/>
      <point x="63" y="109"/>
      <point x="202" y="-20"/>
    </contour>
    <contour>
      <point x="283.32" y="81" type="line"/>
      <point x="308.144" y="134.078"/>
      <point x="347.495" y="165.671"/>
      <point x="383.595" y="165.671" type="curve" smooth="yes"/>
      <point x="432.369" y="165.671"/>
      <point x="449.452" y="117.025"/>
      <point x="469.518" y="59.8816" type="curve" smooth="yes"/>
      <point x="498.079" y="-21.4518"/>
      <point x="532.685" y="-120"/>
      <point x="673.32" y="-120" type="curve"/>
      <point x="673.32" y="-40" type="line"/>
      <point x="606.744" y="-40"/>
      <point x="587.947" y="13.1472"/>
      <point x="568.131" y="69.1771" type="curve" smooth="yes"/>
      <point x="546.041" y="131.633"/>
      <point x="522.685" y="197.671"/>
      <point x="430.472" y="197.671" type="curve" smooth="yes"/>
      <point x="348.759" y="197.671"/>
      <point x="304.081" y="140.743"/>
      <point x="276.32" y="85" type="curve"/>
    </contour>
  </outline>
</glyph>
<glyph name="Scedilla.ss09" format="2">
  <advance width="590"/>
  <anchor x="280" y="719" name="top"/>
  <anchor x="275" y="-218" name="bottom"/>
  <outline>
    <contour>
      <point x="48" y="197" type="line"/>
      <point x="72" y="66"/>
      <point x="151" y="-21"/>
      <point x="300" y="-21" type="curve" smooth="yes"/>
      <point x="441" y="-21"/>
      <point x="531" y="56.1167"/>
      <point x="531" y="181.306" type="curve" smooth="yes"/>
      <point x="531" y="330.82"/>
      <point x="419.602" y="361.389"/>
      <point x="317.755" y="389.337" type="curve" smooth="yes"/>
      <point x="231.991" y="412.872"/>
      <point x="153" y="434.548"/>
      <point x="153" y="523.824" type="curve" smooth="yes"/>
      <point x="153" y="603.945"/>
      <point x="197" y="640"/>
      <point x="281" y="640" type="curve" smooth="yes"/>
      <point x="366" y="640"/>
      <point x="414" y="595.679"/>
      <point x="428" y="502" type="curve"/>
      <point x="518" y="502" type="line"/>
      <point x="495" y="633"/>
      <point x="420" y="720"/>
      <point x="279" y="720" type="curve" smooth="yes"/>
      <point x="143" y="720"/>
      <point x="63" y="637.876"/>
      <point x="63" y="521.7" type="curve" smooth="yes"/>
      <point x="63" y="372.708"/>
      <point x="173.622" y="343.004"/>
      <point x="275.179" y="315.734" type="curve" smooth="yes"/>
      <point x="361.352" y="292.595"/>
      <point x="441" y="271.209"/>
      <point x="441" y="180.183" type="curve" smooth="yes"/>
      <point x="441" y="98.0591"/>
      <point x="391" y="59"/>
      <point x="302" y="59" type="curve" smooth="yes"/>
      <point x="205" y="59"/>
      <point x="152" y="105.336"/>
      <point x="138" y="197" type="curve"/>
    </contour>
    <contour>
      <point x="179" y="-205" type="line"/>
      <point x="200" y="-211"/>
      <point x="224" y="-218"/>
      <point x="263" y="-218" type="curve" smooth="yes"/>
      <point x="343" y="-218"/>
      <point x="389" y="-189"/>
      <point x="389" y="-137" type="curve" smooth="yes"/>
      <point x="389" y="-90"/>
      <point x="352" y="-64"/>
      <point x="293" y="-64" type="curve"/>
      <point x="337.74" y="14.8951" type="line"/>
      <point x="280.74" y="14.8951" type="line"/>
      <point x="226" y="-86" type="line"/>
      <point x="241" y="-84"/>
      <point x="252" y="-82"/>
      <point x="265" y="-82" type="curve" smooth="yes"/>
      <point x="300" y="-82"/>
      <point x="321" y="-97"/>
      <point x="321" y="-132" type="curve" smooth="yes"/>
      <point x="321" y="-166"/>
      <point x="302" y="-182"/>
      <point x="260" y="-182" type="curve" smooth="yes"/>
      <point x="237" y="-182"/>
      <point x="215" y="-177"/>
      <point x="198" y="-171" type="curve"/>
    </contour>
  </outline>
</glyph>
<glyph name="Scedilla.ss12" format="2">
  <advance width="590"/>
  <anchor x="290" y="719" name="top"/>
  <anchor x="275" y="-218" name="bottom"/>
  <outline>
    <contour>
      <point x="69.1438" y="82.286" type="line"/>
      <point x="131.859" y="13.5407"/>
      <point x="210.425" y="-20"/>
      <point x="308.74" y="-20" type="curve" smooth="yes"/>
      <point x="450.53" y="-20"/>
      <point x="531" y="50"/>
      <point x="531" y="174.349" type="curve" smooth="yes"/>
      <point x="531" y="305.898"/>
      <point x="426.92" y="351.228"/>
      <point x="329.312" y="384.362" type="curve" smooth="yes"/>
      <point x="243.133" y="413.615"/>
      <point x="162" y="431.156"/>
      <point x="162" y="524.218" type="curve" smooth="yes"/>
      <point x="162" y="598"/>
      <point x="213" y="640"/>
      <point x="293" y="640" type="curve" smooth="yes"/>
      <point x="356.014" y="640"/>
      <point x="426" y="622"/>
      <point x="496.665" y="556.163" type="curve"/>
      <point x="504.685" y="630.635" type="line"/>
      <point x="456.565" y="685.629"/>
      <point x="383.365" y="720"/>
      <point x="294" y="720" type="curve" smooth="yes"/>
      <point x="159" y="720"/>
      <point x="72" y="645"/>
      <point x="72" y="520.233" type="curve" smooth="yes"/>
      <point x="72" y="382.853"/>
      <point x="177.478" y="348.327"/>
      <point x="275.647" y="316.194" type="curve" smooth="yes"/>
      <point x="361.092" y="288.226"/>
      <point x="441" y="262.07"/>
      <point x="441" y="164.366" type="curve" smooth="yes"/>
      <point x="441" y="79"/>
      <point x="385.508" y="60"/>
      <point x="304.508" y="60" type="curve" smooth="yes"/>
      <point x="227.506" y="60"/>
      <point x="148.444" y="94.9281"/>
      <point x="77.1888" y="156.989" type="curve"/>
    </contour>
    <contour>
      <point x="179" y="-205" type="line"/>
      <point x="200" y="-211"/>
      <point x="224" y="-218"/>
      <point x="263" y="-218" type="curve" smooth="yes"/>
      <point x="343" y="-218"/>
      <point x="389" y="-189"/>
      <point x="389" y="-137" type="curve" smooth="yes"/>
      <point x="389" y="-90"/>
      <point x="352" y="-64"/>
      <point x="293" y="-64" type="curve"/>
      <point x="337.74" y="14.8951" type="line"/>
      <point x="280.74" y="14.8951" type="line"/>
      <point x="226" y="-86" type="line"/>
      <point x="241" y="-84"/>
      <point x="252" y="-82"/>
      <point x="265" y="-82" type="curve" smooth="yes"/>
      <point x="300" y="-82"/>
      <point x="321" y="-97"/>
      <point x="321" y="-132" type="curve" smooth="yes"/>
      <point x="321" y="-166"/>
      <point x="302" y="-182"/>
      <point x="260" y="-182" type="curve" smooth="yes"/>
      <point x="237" y="-182"/>
      <point x="215" y="-177"/>
      <point x="198" y="-171" type="curve"/>
    </contour>
  </outline>
</glyph>
<glyph name="ae.ss02" format="2">
  <advance width="904"/>
  <anchor x="453" y="500" name="top"/>
  <anchor x="453" y="-0" name="bottom"/>
  <outline>
    <contour>
      <point x="90.44" y="430" type="line"/>
      <point x="129.38" y="483"/>
      <point x="197.79" y="520"/>
      <point x="285.19" y="520" type="curve" smooth="yes" name="at01"/>
      <point x="363.17" y="520"/>
      <point x="413.95" y="490.61"/>
      <point x="441.22" y="446.26" type="curve"/>
      <point x="482.79" y="494.95"/>
      <point x="543.6" y="520"/>
      <point x="616.83" y="520" type="curve" smooth="yes" name="at01"/>
      <point x="762.75" y="520"/>
      <point x="844.35" y="421"/>
      <point x="844.35" y="237" type="curve" name="dv03"/>
      <point x="467.07" y="237" type="line" name="sv04"/>
      <point x="467.07" y="128.41"/>
      <point x="516.19" y="50"/>
      <point x="622.13" y="50" type="curve" smooth="yes" name="dv02"/>
      <point x="683.76" y="50"/>
      <point x="735.77" y="76.36"/>
      <point x="770.43" y="123" type="curve"/>
      <point x="821.31" y="70" type="line"/>
      <point x="781.95" y="17"/>
      <point x="712.83" y="-20"/>
      <point x="621.63" y="-20" type="curve" smooth="yes" name="dv01"/>
      <point x="525.03" y="-20"/>
      <point x="449.03" y="21.98"/>
      <point x="409.85" y="104.35" type="curve"/>
      <point x="383.846" y="29.2142"/>
      <point x="311.574" y="-20"/>
      <point x="229.899" y="-20" type="curve" smooth="yes"/>
      <point x="133.19" y="-20"/>
      <point x="61" y="49"/>
      <point x="61" y="146" type="curve" smooth="yes"/>
      <point x="61" y="243"/>
      <point x="133.19" y="312"/>
      <point x="229.14" y="312" type="curve" smooth="yes"/>
      <point x="299.56" y="312"/>
      <point x="354.99" y="274.63"/>
      <point x="380.19" y="227.99" type="curve" name="sv03"/>
      <point x="380.19" y="363.8" type="line" smooth="yes"/>
      <point x="380.19" y="419.93"/>
      <point x="339.34" y="450"/>
      <point x="280.44" y="450" type="curve" smooth="yes" name="sv01"/>
      <point x="226.29" y="450"/>
      <point x="175" y="423.63"/>
      <point x="140.79" y="377" type="curve"/>
    </contour>
    <contour>
      <point x="755.07" y="296" type="line" name="dv04"/>
      <point x="745.44" y="398.32"/>
      <point x="695.35" y="450"/>
      <point x="616.35" y="450" type="curve" smooth="yes" name="sv01"/>
      <point x="537.35" y="450"/>
      <point x="480.51" y="398.32"/>
      <point x="470.91" y="296" type="curve" name="sv02"/>
    </contour>
    <contour>
      <point x="380.19" y="176.86" type="curve"/>
      <point x="361.36" y="219.37"/>
      <point x="316.29" y="242"/>
      <point x="257.64" y="242" type="curve" smooth="yes"/>
      <point x="190.19" y="242"/>
      <point x="146.49" y="212"/>
      <point x="146.49" y="150" type="curve" smooth="yes"/>
      <point x="146.49" y="87"/>
      <point x="192.09" y="50"/>
      <point x="256.69" y="50" type="curve" smooth="yes"/>
      <point x="328.85" y="50"/>
      <point x="380.13" y="95.95"/>
    </contour>
  </outline>
</glyph>
<glyph name="aogonek.ss12" format="2">
  <advance width="544"/>
  <anchor x="272" y="520" name="top"/>
  <anchor x="272" y="-20" name="bottom"/>
  <outline>
    <contour>
      <point x="378" y="0" type="line"/>
      <point x="378" y="288" type="line"/>
      <point x="378" y="268"/>
      <point x="331" y="220"/>
      <point x="243" y="220" type="curve" smooth="yes"/>
      <point x="175" y="220"/>
      <point x="136" y="191"/>
      <point x="136" y="134" type="curve" smooth="yes"/>
      <point x="136" y="81"/>
      <point x="169" y="50"/>
      <point x="232" y="50" type="curve" smooth="yes"/>
      <point x="308" y="50"/>
      <point x="378" y="94"/>
      <point x="378" y="157" type="curve"/>
      <point x="389" y="128" type="line"/>
      <point x="367" y="30"/>
      <point x="312" y="-20"/>
      <point x="221.213" y="-20" type="curve" smooth="yes"/>
      <point x="117.2" y="-20"/>
      <point x="46" y="45.6304"/>
      <point x="46" y="144.076" type="curve" smooth="yes"/>
      <point x="46" y="236.683"/>
      <point x="115" y="285"/>
      <point x="241" y="285" type="curve" smooth="yes"/>
      <point x="338" y="285"/>
      <point x="378" y="312.665"/>
      <point x="378" y="367.006" type="curve" smooth="yes"/>
      <point x="378" y="426.287"/>
      <point x="329" y="450"/>
      <point x="262" y="450" type="curve" smooth="yes"/>
      <point x="204" y="450"/>
      <point x="159" y="432"/>
      <point x="81" y="377" type="curve"/>
      <point x="74" y="442" type="line"/>
      <point x="125" y="494"/>
      <point x="189" y="520"/>
      <point x="267" y="520" type="curve" smooth="yes"/>
      <point x="391" y="520"/>
      <point x="468" y="455"/>
      <point x="468" y="350" type="curve" smooth="yes"/>
      <point x="468" y="0" type="line"/>
    </contour>
    <contour>
      <point x="428" y="-206" type="line"/>
      <point x="368" y="-196"/>
      <point x="328" y="-157"/>
      <point x="328" y="-110" type="curve" smooth="yes"/>
      <point x="328" y="-59"/>
      <point x="375" y="-12"/>
      <point x="448" y="3" type="curve"/>
      <point x="469" y="0" type="line"/>
      <point x="428" y="-22"/>
      <point x="403" y="-62"/>
      <point x="403" y="-103" type="curve" smooth="yes"/>
      <point x="403" y="-143"/>
      <point x="426" y="-171"/>
      <point x="470" y="-183" type="curve"/>
    </contour>
  </outline>
</glyph>
<glyph name="c.ss09" format="2">
  <advance width="611"/>
  <anchor x="306" y="520" name="top"/>
  <anchor x="336" y="-20" name="bottom"/>
  <outline>
    <contour>
      <point x="450" y="167" type="line"/>
      <point x="447" y="98.4138"/>
      <point x="396" y="50"/>
      <point x="324" y="50" type="curve" smooth="yes"/>
      <point x="218" y="50"/>
      <point x="159" y="122.362"/>
      <point x="159" y="246.985" type="curve" smooth="yes"/>
      <point x="159" y="373.618"/>
      <point x="213" y="450"/>
      <point x="317" y="450" type="curve" smooth="yes"/>
      <point x="389" y="450"/>
      <point x="444" y="401.593"/>
      <point x="452" y="331" type="curve"/>
      <point x="542" y="331" type="line"/>
      <point x="524" y="457"/>
      <point x="439" y="520"/>
      <point x="316" y="520" type="curve" smooth="yes"/>
      <point x="161" y="520"/>
      <point x="69" y="417"/>
      <point x="69" y="255" type="curve" smooth="yes"/>
      <point x="69" y="85"/>
      <point x="165" y="-20"/>
      <point x="321" y="-20" type="curve" smooth="yes"/>
      <point x="446" y="-20"/>
      <point x="530" y="47"/>
      <point x="540" y="167" type="curve"/>
    </contour>
  </outline>
</glyph>
<glyph name="ccedilla.ss09" format="2">
  <advance width="611"/>
  <anchor x="306" y="520" name="top"/>
  <anchor x="316" y="-218" name="bottom"/>
  <outline>
    <contour>
      <point x="450" y="167" type="line"/>
      <point x="447" y="98.4138"/>
      <point x="396" y="50"/>
      <point x="324" y="50" type="curve" smooth="yes"/>
      <point x="218" y="50"/>
      <point x="159" y="122.362"/>
      <point x="159" y="246.985" type="curve" smooth="yes"/>
      <point x="159" y="373.618"/>
      <point x="213" y="450"/>
      <point x="317" y="450" type="curve" smooth="yes"/>
      <point x="389" y="450"/>
      <point x="444" y="401.593"/>
      <point x="452" y="331" type="curve"/>
      <point x="542" y="331" type="line"/>
      <point x="524" y="457"/>
      <point x="439" y="520"/>
      <point x="316" y="520" type="curve" smooth="yes"/>
      <point x="161" y="520"/>
      <point x="69" y="417"/>
      <point x="69" y="255" type="curve" smooth="yes"/>
      <point x="69" y="85"/>
      <point x="165" y="-20"/>
      <point x="321" y="-20" type="curve" smooth="yes"/>
      <point x="446" y="-20"/>
      <point x="530" y="47"/>
      <point x="540" y="167" type="curve"/>
    </contour>
    <contour>
      <point x="220" y="-205" type="line"/>
      <point x="241" y="-211"/>
      <point x="265" y="-218"/>
      <point x="304" y="-218" type="curve" smooth="yes"/>
      <point x="384" y="-218"/>
      <point x="430" y="-189"/>
      <point x="430" y="-137" type="curve" smooth="yes"/>
      <point x="430" y="-90"/>
      <point x="393" y="-64"/>
      <point x="334" y="-64" type="curve"/>
      <point x="378.74" y="14.8951" type="line"/>
      <point x="321.74" y="14.8951" type="line"/>
      <point x="267" y="-86" type="line"/>
      <point x="282" y="-84"/>
      <point x="293" y="-82"/>
      <point x="306" y="-82" type="curve" smooth="yes"/>
      <point x="341" y="-82"/>
      <point x="362" y="-97"/>
      <point x="362" y="-132" type="curve" smooth="yes"/>
      <point x="362" y="-166"/>
      <point x="343" y="-182"/>
      <point x="301" y="-182" type="curve" smooth="yes"/>
      <point x="278" y="-182"/>
      <point x="256" y="-177"/>
      <point x="239" y="-171" type="curve"/>
    </contour>
  </outline>
</glyph>
<glyph name="e.ss09" format="2">
  <advance width="595"/>
  <anchor x="298" y="520" name="top"/>
  <anchor x="298" y="-20" name="bottom"/>
  <anchor x="407" y="-3" name="ogonek"/>
  <outline>
    <contour>
      <point x="442" y="308" type="line"/>
      <point x="442" y="403"/>
      <point x="382" y="450"/>
      <point x="300" y="450" type="curve" smooth="yes"/>
      <point x="217" y="450"/>
      <point x="149" y="402"/>
      <point x="149" y="308" type="curve"/>
    </contour>
    <contour>
      <point x="149" y="243" type="line"/>
      <point x="149" y="120.365"/>
      <point x="208" y="50"/>
      <point x="302" y="50" type="curve" smooth="yes"/>
      <point x="371" y="50"/>
      <point x="437" y="85.3017"/>
      <point x="441" y="167" type="curve"/>
      <point x="532" y="167" type="line"/>
      <point x="511" y="50"/>
      <point x="437" y="-20"/>
      <point x="300" y="-20" type="curve" smooth="yes"/>
      <point x="149" y="-20"/>
      <point x="58" y="95"/>
      <point x="58" y="255" type="curve" smooth="yes"/>
      <point x="58" y="401"/>
      <point x="141" y="520"/>
      <point x="300" y="520" type="curve" smooth="yes"/>
      <point x="459" y="520"/>
      <point x="538" y="402"/>
      <point x="538" y="243" type="curve"/>
    </contour>
  </outline>
</glyph>
<glyph name="e.ss12" format="2">
  <advance width="585"/>
  <anchor x="298" y="520" name="top"/>
  <anchor x="298" y="-20" name="bottom"/>
  <anchor x="406" y="-3" name="ogonek"/>
  <outline>
    <contour>
      <point x="432" y="308" type="line"/>
      <point x="432" y="394"/>
      <point x="378" y="450"/>
      <point x="295" y="450" type="curve" smooth="yes"/>
      <point x="211" y="450"/>
      <point x="152" y="392"/>
      <point x="152" y="308" type="curve"/>
    </contour>
    <contour>
      <point x="149" y="243" type="line"/>
      <point x="149" y="125"/>
      <point x="212" y="50"/>
      <point x="312" y="50" type="curve" smooth="yes"/>
      <point x="378" y="50"/>
      <point x="434" y="77"/>
      <point x="492" y="134" type="curve"/>
      <point x="499" y="69" type="line"/>
      <point x="442" y="7"/>
      <point x="387" y="-20"/>
      <point x="309.844" y="-20" type="curve" smooth="yes"/>
      <point x="152" y="-20"/>
      <point x="58" y="93"/>
      <point x="58" y="255" type="curve" smooth="yes"/>
      <point x="58" y="410"/>
      <point x="152" y="520"/>
      <point x="298" y="520" type="curve" smooth="yes"/>
      <point x="438" y="520"/>
      <point x="528" y="413"/>
      <point x="528" y="243" type="curve"/>
    </contour>
  </outline>
</glyph>
<glyph name="eogonek.ss09" format="2">
  <advance width="595"/>
  <anchor x="298" y="520" name="top"/>
  <anchor x="298" y="-20" name="bottom"/>
  <outline>
    <contour>
      <point x="442" y="308" type="line"/>
      <point x="442" y="403"/>
      <point x="382" y="450"/>
      <point x="300" y="450" type="curve" smooth="yes"/>
      <point x="217" y="450"/>
      <point x="149" y="402"/>
      <point x="149" y="308" type="curve"/>
    </contour>
    <contour>
      <point x="149" y="243" type="line"/>
      <point x="149" y="120.365"/>
      <point x="208" y="50"/>
      <point x="302" y="50" type="curve" smooth="yes"/>
      <point x="371" y="50"/>
      <point x="437" y="85.3017"/>
      <point x="441" y="167" type="curve"/>
      <point x="532" y="167" type="line"/>
      <point x="511" y="50"/>
      <point x="437" y="-20"/>
      <point x="300" y="-20" type="curve" smooth="yes"/>
      <point x="149" y="-20"/>
      <point x="58" y="95"/>
      <point x="58" y="255" type="curve" smooth="yes"/>
      <point x="58" y="401"/>
      <point x="141" y="520"/>
      <point x="300" y="520" type="curve" smooth="yes"/>
      <point x="459" y="520"/>
      <point x="538" y="402"/>
      <point x="538" y="243" type="curve"/>
    </contour>
    <contour>
      <point x="369" y="-206" type="line"/>
      <point x="309" y="-196"/>
      <point x="269" y="-157"/>
      <point x="269" y="-110" type="curve" smooth="yes"/>
      <point x="269" y="-59"/>
      <point x="316" y="-12"/>
      <point x="389" y="3" type="curve"/>
      <point x="410" y="0" type="line"/>
      <point x="369" y="-22"/>
      <point x="344" y="-62"/>
      <point x="344" y="-103" type="curve" smooth="yes"/>
      <point x="344" y="-143"/>
      <point x="367" y="-171"/>
      <point x="411" y="-183" type="curve"/>
    </contour>
  </outline>
</glyph>
<glyph name="epsilon.ss10" format="2">
  <advance width="500"/>
  <anchor x="250" y="519" name="topgr"/>
  <outline>
    <contour>
      <point x="367" y="228" type="curve"/>
      <point x="367" y="288" type="line"/>
      <point x="243" y="288"/>
      <point x="167" y="324"/>
      <point x="167" y="386" type="curve" smooth="yes"/>
      <point x="167" y="425"/>
      <point x="197" y="450"/>
      <point x="251" y="450" type="curve" smooth="yes"/>
      <point x="319" y="450"/>
      <point x="382" y="410"/>
      <point x="416" y="350" type="curve"/>
      <point x="443" y="435" type="line"/>
      <point x="400" y="488"/>
      <point x="332" y="520"/>
      <point x="247" y="520" type="curve" smooth="yes"/>
      <point x="126" y="520"/>
      <point x="77" y="455"/>
      <point x="77" y="388" type="curve" smooth="yes"/>
      <point x="77" y="320"/>
      <point x="127" y="274"/>
      <point x="254" y="260" type="curve"/>
      <point x="130" y="251"/>
      <point x="59" y="226"/>
      <point x="59" y="133" type="curve" smooth="yes"/>
      <point x="59" y="40"/>
      <point x="129" y="-20"/>
      <point x="246" y="-20" type="curve" smooth="yes"/>
      <point x="327" y="-20"/>
      <point x="396" y="9"/>
      <point x="443" y="66" type="curve"/>
      <point x="416" y="151" type="line"/>
      <point x="385" y="93.43"/>
      <point x="324" y="50"/>
      <point x="250" y="50" type="curve" smooth="yes"/>
      <point x="194" y="50"/>
      <point x="149" y="75.1412"/>
      <point x="149" y="134.475" type="curve" smooth="yes"/>
      <point x="149" y="198.836"/>
      <point x="203" y="228"/>
    </contour>
  </outline>
</glyph>
<glyph name="hardcyr.loclBGR" format="2">
  <advance width="600"/>
  <outline>
    <contour>
      <point x="179" y="245" type="line"/>
      <point x="359" y="245" type="line" smooth="yes"/>
      <point x="423" y="245"/>
      <point x="450" y="208.017"/>
      <point x="450" y="147.5" type="curve" smooth="yes"/>
      <point x="450" y="89"/>
      <point x="410.099" y="50"/>
      <point x="350.248" y="50" type="curve" smooth="yes"/>
      <point x="280.597" y="50"/>
      <point x="244.583" y="81.185"/>
      <point x="244.499" y="141.57" type="curve" smooth="yes"/>
      <point x="244" y="500" type="line"/>
      <point x="154" y="500" type="line"/>
      <point x="154.499" y="148.48" type="line" smooth="yes"/>
      <point x="154.655" y="38.4487"/>
      <point x="222.471" y="-20"/>
      <point x="350.432" y="-20" type="curve" smooth="yes"/>
      <point x="473" y="-20"/>
      <point x="540" y="47"/>
      <point x="540" y="152.286" type="curve" smooth="yes"/>
      <point x="540" y="254.381"/>
      <point x="471" y="315"/>
      <point x="356" y="315" type="curve" smooth="yes"/>
      <point x="179" y="315" type="line"/>
    </contour>
    <contour>
      <point x="21" y="430" type="line"/>
      <point x="179" y="430" type="line"/>
      <point x="212" y="500" type="line"/>
      <point x="21" y="500" type="line"/>
    </contour>
  </outline>
</glyph>
<glyph name="oe.ss10" format="2">
  <advance width="944"/>
  <outline>
    <contour>
      <point x="284.9" y="-20" type="curve" smooth="yes" name="dv01"/>
      <point x="438.8" y="-20"/>
      <point x="517.65" y="79"/>
      <point x="517.65" y="255" type="curve" smooth="yes"/>
      <point x="517.65" y="421"/>
      <point x="438.8" y="520"/>
      <point x="285.85" y="520" type="curve" smooth="yes" name="at01"/>
      <point x="143.35" y="520"/>
      <point x="63.55" y="421"/>
      <point x="63.55" y="255" type="curve" smooth="yes"/>
      <point x="63.55" y="79"/>
      <point x="143.35" y="-20"/>
    </contour>
    <contour>
      <point x="286.8" y="50" type="curve" smooth="yes" name="dv02"/>
      <point x="194.65" y="50"/>
      <point x="149.05" y="118.342"/>
      <point x="149.05" y="255.025" type="curve" smooth="yes"/>
      <point x="149.05" y="387.688"/>
      <point x="193.7" y="450"/>
      <point x="288.7" y="450" type="curve" smooth="yes" name="sv01"/>
      <point x="384.65" y="450"/>
      <point x="432.15" y="383.668"/>
      <point x="432.15" y="253.015" type="curve" smooth="yes"/>
      <point x="432.15" y="115.327"/>
      <point x="385.6" y="50"/>
    </contour>
    <contour>
      <point x="521.5" y="303" type="line"/>
      <point x="521.5" y="388"/>
      <point x="578.5" y="450"/>
      <point x="657.35" y="450" type="curve" smooth="yes"/>
      <point x="734.3" y="450"/>
      <point x="787.5" y="390"/>
      <point x="787.5" y="303" type="curve"/>
    </contour>
    <contour>
      <point x="839.75" y="150" type="line"/>
      <point x="799.55" y="74.3651"/>
      <point x="741.9" y="50"/>
      <point x="670.65" y="50" type="curve" smooth="yes"/>
      <point x="585.15" y="50"/>
      <point x="520.55" y="104"/>
      <point x="520.55" y="238" type="curve"/>
      <point x="880.6" y="238" type="line"/>
      <point x="890.6" y="407"/>
      <point x="799.073" y="520"/>
      <point x="660.668" y="520" type="curve" smooth="yes"/>
      <point x="521.314" y="520"/>
      <point x="434.1" y="410"/>
      <point x="434.1" y="255" type="curve" smooth="yes"/>
      <point x="434.1" y="90"/>
      <point x="523.204" y="-20"/>
      <point x="674.686" y="-20" type="curve" smooth="yes"/>
      <point x="756.39" y="-20"/>
      <point x="824.64" y="12"/>
      <point x="865.4" y="65" type="curve"/>
    </contour>
  </outline>
</glyph>
<glyph name="schwa.ss12" format="2">
  <advance width="600"/>
  <anchor x="300" y="-20" name="bottom"/>
  <anchor x="300" y="520" name="top"/>
  <outline>
    <contour>
      <point x="438" y="219" type="curve"/>
      <point x="153" y="219" type="line"/>
      <point x="153" y="118"/>
      <point x="209" y="50"/>
      <point x="292" y="50" type="curve" smooth="yes"/>
      <point x="377" y="50"/>
      <point x="438" y="121"/>
    </contour>
    <contour>
      <point x="63" y="289" type="curve"/>
      <point x="439" y="289" type="line"/>
      <point x="439" y="384"/>
      <point x="375" y="450"/>
      <point x="283" y="450" type="curve" smooth="yes"/>
      <point x="227" y="450"/>
      <point x="164" y="426.681"/>
      <point x="104" y="377" type="curve"/>
      <point x="97" y="442" type="line"/>
      <point x="139" y="490"/>
      <point x="209" y="520"/>
      <point x="287" y="520" type="curve" smooth="yes"/>
      <point x="435" y="520"/>
      <point x="531" y="412"/>
      <point x="531" y="244" type="curve" smooth="yes"/>
      <point x="531" y="83"/>
      <point x="443" y="-20"/>
      <point x="295" y="-20" type="curve" smooth="yes"/>
      <point x="147" y="-20"/>
      <point x="60" y="84"/>
      <point x="60" y="245" type="curve" smooth="yes"/>
      <point x="60" y="269"/>
      <point x="62" y="280"/>
    </contour>
  </outline>
</glyph>
<glyph name="tsecyr.loclBGR" format="2">
  <advance width="680"/>
  <outline>
    <contour>
      <point x="437" y="203" type="line"/>
      <point x="425" y="263" type="line"/>
      <point x="425" y="125.293"/>
      <point x="375" y="50"/>
      <point x="287" y="50" type="curve" smooth="yes"/>
      <point x="218" y="50"/>
      <point x="184" y="96.792"/>
      <point x="184" y="184.403" type="curve" smooth="yes"/>
      <point x="184" y="500" type="line"/>
      <point x="94" y="500" type="line"/>
      <point x="94" y="196" type="line" smooth="yes"/>
      <point x="94" y="51"/>
      <point x="154" y="-20"/>
      <point x="263" y="-20" type="curve" smooth="yes"/>
      <point x="357" y="-20"/>
      <point x="410" y="32"/>
      <point x="437" y="130" type="curve"/>
    </contour>
    <contour>
      <point x="425" y="0" type="line"/>
      <point x="515" y="0" type="line"/>
      <point x="515" y="500" type="line"/>
      <point x="425" y="500" type="line"/>
    </contour>
    <contour>
      <point x="499" y="0" type="line"/>
      <point x="566" y="0"/>
      <point x="552" y="-72"/>
      <point x="552" y="-140" type="curve"/>
      <point x="628" y="-140" type="line"/>
      <point x="628" y="35"/>
      <point x="607" y="68"/>
      <point x="507" y="68" type="curve"/>
    </contour>
  </outline>
</glyph>
<glyph name="two.ss10" format="2">
  <advance width="612"/>
  <outline>
    <contour>
      <point x="67" y="0" type="line"/>
      <point x="546" y="0" type="line"/>
      <point x="546" y="80" type="line"/>
      <point x="67" y="80" type="line"/>
    </contour>
    <contour>
      <point x="67" y="64" type="line"/>
      <point x="413" y="133"/>
      <point x="546" y="263.921"/>
      <point x="546" y="463.523" type="curve" smooth="yes"/>
      <point x="546" y="623.419"/>
      <point x="459" y="720"/>
      <point x="316" y="720" type="curve" smooth="yes"/>
      <point x="221" y="720"/>
      <point x="142" y="680"/>
      <point x="74" y="603" type="curve"/>
      <point x="110" y="499" type="line"/>
      <point x="167" y="593"/>
      <point x="226" y="639"/>
      <point x="314" y="639" type="curve" smooth="yes"/>
      <point x="402" y="639"/>
      <point x="456" y="573.604"/>
      <point x="456" y="467.198" type="curve" smooth="yes"/>
      <point x="456" y="315.347"/>
      <point x="378" y="230"/>
      <point x="67" y="146" type="curve"/>
    </contour>
  </outline>
</glyph>
<glyph name="yacyr.ss08" format="2">
  <advance width="570"/>
  <anchor x="285" y="-20" name="bottom"/>
  <anchor x="285" y="520" name="top"/>
  <outline>
    <contour>
      <point x="387" y="0" type="line"/>
      <point x="477" y="0" type="line"/>
      <point x="477" y="500" type="line"/>
      <point x="275" y="500" type="line" smooth="yes"/>
      <point x="147" y="500"/>
      <point x="73" y="446"/>
      <point x="73" y="343" type="curve" smooth="yes"/>
      <point x="73" y="253"/>
      <point x="132" y="193"/>
      <point x="282" y="193" type="curve" smooth="yes"/>
      <point x="387" y="193" type="line"/>
    </contour>
    <contour>
      <point x="387" y="263" type="line"/>
      <point x="267" y="263" type="line" smooth="yes"/>
      <point x="200" y="263"/>
      <point x="164" y="290"/>
      <point x="164" y="347" type="curve" smooth="yes"/>
      <point x="164" y="407"/>
      <point x="200" y="430"/>
      <point x="267" y="430" type="curve" smooth="yes"/>
      <point x="387" y="430" type="line"/>
    </contour>
    <contour>
      <point x="158" y="0" type="line"/>
      <point x="185" y="36"/>
      <point x="153" y="111"/>
      <point x="179" y="162" type="curve" smooth="yes"/>
      <point x="198" y="199"/>
      <point x="226" y="193"/>
      <point x="286" y="193" type="curve"/>
      <point x="219" y="235" type="line"/>
      <point x="169" y="224"/>
      <point x="118" y="213"/>
      <point x="92" y="162" type="curve" smooth="yes"/>
      <point x="66" y="111"/>
      <point x="96" y="36"/>
      <point x="69" y="0" type="curve"/>
    </contour>
  </outline>
</glyph>
<glyph name="zecyr.loclBGR.ss10" format="2">
  <advance width="500"/>
  <outline>
    <contour>
      <point x="74" y="-50" type="line"/>
      <point x="111.104" y="-115.813"/>
      <point x="171.53" y="-151.251"/>
      <point x="243.53" y="-151.251" type="curve" smooth="yes"/>
      <point x="320.603" y="-151.251"/>
      <point x="364.285" y="-104.524"/>
      <point x="364.285" y="-22.0777" type="curve" smooth="yes"/>
      <point x="364.285" y="86.4386"/>
      <point x="312.897" y="141"/>
      <point x="169" y="141" type="curve"/>
      <point x="169" y="201" type="line"/>
      <point x="278.351" y="200.37"/>
      <point x="335" y="255.843"/>
      <point x="335" y="340.902" type="curve" smooth="yes"/>
      <point x="335" y="414.272"/>
      <point x="303.539" y="450"/>
      <point x="238.93" y="450" type="curve" smooth="yes"/>
      <point x="175" y="450"/>
      <point x="112.846" y="415"/>
      <point x="74" y="350" type="curve"/>
      <point x="47" y="435" type="line"/>
      <point x="91" y="488"/>
      <point x="169" y="520"/>
      <point x="241" y="520" type="curve" smooth="yes"/>
      <point x="362.897" y="520"/>
      <point x="425" y="462.311"/>
      <point x="425" y="349.078" type="curve" smooth="yes"/>
      <point x="425" y="249.118"/>
      <point x="362.381" y="186.831"/>
      <point x="247.351" y="172.37" type="curve"/>
      <point x="362.964" y="172.37"/>
      <point x="454.285" y="96.9658"/>
      <point x="454.285" y="-17.7178" type="curve" smooth="yes"/>
      <point x="454.285" y="-136.566"/>
      <point x="373.055" y="-221.251"/>
      <point x="248.284" y="-221.251" type="curve" smooth="yes"/>
      <point x="171.53" y="-221.251"/>
      <point x="92.1924" y="-189.204"/>
      <point x="47" y="-135.125" type="curve"/>
    </contour>
  </outline>
</glyph>
